# xmcd
#
# Track frame offsets:
# 150
# 18366
# 34178
# 52174
# 66571
# 89673
# 111970
# 130248
# 148471
# 168933
# 188722
#
# Disc length: 2788 seconds
#
#
# Revision: 0
# Processed by: cddbd v1.4PL0 Copyright (c) Steve Scherf et al.
# Submitted via: FreeRIP 2.00 
#
DISCID=a90ae20b
DTITLE=Tommy Castro - The Essential Tommy Castro
DYEAR=2001
DGENRE=Blues
TTITLE0=Can't Keep a Good Man Down 
TTITLE1=Exception to the Rule
TTITLE2=Lucky in Love 
TTITLE3=The Girl Can't Help It 
TTITLE4=Just a Man
TTITLE5=Had Enough 
TTITLE6=Nasty Habits 
TTITLE7=Sho' Enough 
TTITLE8=Take the Highway Down 
TTITLE9=Right as Rain 
TTITLE10=Hycodan 
EXTD=
EXTT0=
EXTT1=
EXTT2=
EXTT3=
EXTT4=
EXTT5=
EXTT6=
EXTT7=
EXTT8=
EXTT9=
EXTT10=
PLAYORDER=
